<?xml version="1.0" encoding="utf-8"?>
<!-- Generator: Adobe Illustrator 16.0.0, SVG Export Plug-In . SVG Version: 6.00 Build 0)  -->
<!DOCTYPE svg PUBLIC "-//W3C//DTD SVG 1.1//EN" "http://www.w3.org/Graphics/SVG/1.1/DTD/svg11.dtd">
<svg version="1.1" id="Layer_1" xmlns="http://www.w3.org/2000/svg" xmlns:xlink="http://www.w3.org/1999/xlink" x="0px" y="0px"
	 width="512px" height="512px" viewBox="0 0 512 512" enable-background="new 0 0 512 512" xml:space="preserve">
<g>
	<rect x="0" fill="none" width="512" height="512"/>
	<g>
		<g>
			<path fill="#D4D4D5" d="M305.823,47.336c-10.631-2.697-21.763-4.134-33.222-4.134c-58.688,0-108.603,37.509-127.112,89.857v0.006
				c-48.236,0.639-88.519,40.041-88.519,89.869c0,49.629,40.235,89.863,89.865,89.863h191.217L305.823,47.336z"/>
			<path fill="#EFEDEE" d="M407.377,177.996c-0.004-63.119-43.276-115.88-101.556-130.66
				c-58.355,14.817-101.53,67.698-101.53,130.666c0,74.101,59.791,134.232,133.762,134.795h69.524
				c37.222-0.001,67.4-30.177,67.4-67.399C474.979,207.688,444.156,177.799,407.377,177.996z"/>
			
				<ellipse transform="matrix(1 0.003 -0.003 1 0.6253 -0.6261)" fill="#FF8E9E" cx="209.947" cy="209.074" rx="24.198" ry="19.269"/>
			
				<ellipse transform="matrix(-1 -0.003 0.003 -1 681.4025 420.1229)" fill="#FF8E9E" cx="341.015" cy="209.553" rx="24.198" ry="19.27"/>
			<path fill="#313D40" d="M214.675,171.72c-3.936,0-7.127,3.191-7.127,7.126v9.501c0,3.936,3.19,7.124,7.127,7.124
				c3.933,0,7.125-3.187,7.125-7.124v-9.501C221.8,174.911,218.609,171.72,214.675,171.72z"/>
			<path fill="#313D40" d="M336.275,171.72c-3.936,0-7.125,3.191-7.125,7.126v9.501c0,3.936,3.188,7.124,7.125,7.124
				c3.938,0,7.126-3.187,7.126-7.124v-9.501C343.401,174.911,340.211,171.72,336.275,171.72z"/>
			<path fill="#313D40" d="M294.225,184.767c-3.552-1.699-7.806-0.195-9.503,3.355c-1.583,3.311-5.026,5.449-8.771,5.449
				c-3.748,0-7.191-2.139-8.773-5.449c-1.697-3.553-5.952-5.052-9.501-3.355c-3.552,1.7-5.053,5.952-3.355,9.503
				c3.937,8.232,12.425,13.551,21.627,13.551c9.201,0,17.692-5.32,21.628-13.551C299.276,190.719,297.773,186.467,294.225,184.767
				L294.225,184.767z"/>
		</g>
		<g>
			<path fill="#C3DCE0" d="M54.796,297.361c4.595-6.329,13.881-13.328,23.307-14.459c26.517-3.18,53.444-6.158,80.275-3.893
				c15.082,1.273,30.123,3.104,44.774,6.305c8.682,1.895,17.313,3.718,26.149,4.968c5.627,0.428,11.264,0.565,16.901,0.284
				c1.811-0.318,3.599-0.697,5.367-1.146c13.763-5.014,29.384-4.261,41,2.511c-0.368-1.6-0.877-3.175-1.541-4.701
				c-0.766-1.76-1.721-3.461-2.885-5.065c-10.889-14.993-32.938-18.765-51.575-11.976c-1.77,0.449-3.558,0.828-5.367,1.146
				c-5.639,0.281-11.274,0.143-16.901-0.285c-8.837-1.25-17.469-3.072-26.149-4.968c-14.651-3.2-29.692-5.03-44.774-6.304
				c-26.831-2.268-53.76,0.713-80.275,3.893c-9.426,1.13-18.712,8.129-23.307,14.459c-5.277,7.266-6.701,16.122-3.933,24.243
				c1.586,4.649,4.523,8.929,8.455,12.507c1.762,1.602,3.737,3.046,5.868,4.336C48.42,311.775,50.031,303.922,54.796,297.361z"/>
			<path fill="#BDE9F4" d="M83.839,324.348c1.364-0.162,2.73-0.313,4.098-0.472c18.826-1.829,37.676-2.58,56.558-1.049
				c17.108,2.377,33.566,6.889,50.712,9.146c27.271,3.59,53.706,3.479,78.949-6.763c14.941-6.063,21.353-20.524,18.419-33.278
				c-11.617-6.771-27.238-7.523-41-2.511c-1.771,0.448-3.559,0.827-5.368,1.146c-5.639,0.281-11.274,0.144-16.901-0.284
				c-8.837-1.25-17.469-3.073-26.149-4.968c-14.651-3.2-29.692-5.03-44.774-6.305c-26.831-2.267-53.76,0.713-80.275,3.893
				c-9.426,1.131-18.712,8.13-23.307,14.46c-4.765,6.56-6.376,14.413-4.608,21.854c1.156,0.7,2.346,1.367,3.6,1.96
				C63.663,325.844,72.967,325.65,83.839,324.348z"/>
		</g>
		<g>
			<path fill="#C3DCE0" d="M250.577,365.78c4.596-5.443,13.882-11.466,23.308-12.438c26.515-2.734,53.443-5.296,80.273-3.348
				c15.083,1.097,30.124,2.669,44.777,5.423c8.679,1.632,17.312,3.199,26.148,4.274c5.627,0.367,11.263,0.487,16.901,0.245
				c1.809-0.274,3.598-0.601,5.367-0.986c17.915-5.614,38.982-2.828,50.258,8.855c-0.251-4.402-1.928-8.743-5.093-12.493
				c-10.888-12.898-32.939-16.142-51.574-10.302c-1.77,0.386-3.559,0.712-5.367,0.986c-5.639,0.242-11.274,0.122-16.901-0.245
				c-8.837-1.074-17.47-2.643-26.148-4.274c-14.653-2.754-29.694-4.326-44.777-5.423c-26.83-1.948-53.759,0.614-80.273,3.348
				c-9.426,0.972-18.712,6.994-23.308,12.438c-4.986,5.908-6.527,13.036-4.347,19.698c0.506-2.012,1.336-3.981,2.48-5.868
				c-1.142,1.886-1.972,3.854-2.478,5.864c0.127,0.386,0.263,0.774,0.414,1.158c1.086,2.742,2.813,5.331,5.05,7.684
				C245.048,375.299,246.848,370.198,250.577,365.78z"/>
			<path fill="#D4D4D5" d="M247.316,382.317L247.316,382.317c0.397-0.917,0.859-1.822,1.395-2.707
				C248.174,380.495,247.713,381.4,247.316,382.317z"/>
			<path fill="#BDE9F4" d="M288.211,391.598c1.364-0.139,2.731-0.269,4.099-0.405c18.827-1.572,37.677-2.218,56.558-0.902
				c17.109,2.045,33.566,5.926,50.711,7.867c27.273,3.089,53.707,2.993,78.949-5.817c10.498-3.664,16.784-10.898,18.583-18.682
				c0-0.001-0.001-0.001-0.001-0.002c0.445-1.932,0.612-3.896,0.501-5.85c-11.275-11.684-32.343-14.47-50.258-8.855
				c-1.77,0.386-3.559,0.712-5.367,0.986c-5.639,0.242-11.274,0.122-16.901-0.245c-8.837-1.075-17.47-2.643-26.148-4.274
				c-14.653-2.754-29.694-4.326-44.777-5.423c-26.83-1.948-53.759,0.613-80.273,3.348c-9.426,0.972-18.712,6.994-23.308,12.438
				c-3.729,4.418-5.53,9.519-5.29,14.597c0.635,0.667,1.311,1.315,2.028,1.94c0.397-0.917,0.858-1.822,1.395-2.707
				c-0.536,0.885-0.998,1.79-1.395,2.708c2.991,2.613,6.661,4.852,10.844,6.553C268.036,392.885,277.34,392.721,288.211,391.598z"/>
		</g>
		<g>
			<path fill="#C3DCE0" d="M54.093,440.078c5.016-7.996,15.152-16.845,25.44-18.272c28.94-4.017,58.333-7.78,87.617-4.918
				c16.463,1.611,32.88,3.921,48.874,7.968c9.473,2.396,18.896,4.701,28.541,6.279c6.142,0.539,12.293,0.716,18.448,0.36
				c1.974-0.403,3.927-0.883,5.858-1.449c19.554-8.248,42.549-4.156,54.855,13.009c-0.274-6.467-2.104-12.843-5.559-18.354
				c-11.884-18.949-35.953-23.715-56.293-15.135c-1.931,0.566-3.884,1.046-5.857,1.448c-6.155,0.356-12.306,0.18-18.448-0.358
				c-9.646-1.58-19.068-3.885-28.541-6.28c-15.994-4.046-32.411-6.356-48.874-7.968c-29.285-2.863-58.677,0.902-87.617,4.92
				c-10.288,1.426-20.424,10.274-25.44,18.271c-5.442,8.68-7.125,19.151-4.744,28.939c0.552-2.954,1.458-5.849,2.707-8.62
				c-1.247,2.77-2.153,5.662-2.705,8.614c0.139,0.566,0.287,1.138,0.452,1.702c1.186,4.028,3.07,7.833,5.512,11.288
				C48.057,454.063,50.023,446.569,54.093,440.078z"/>
			<path fill="#D4D4D5" d="M50.533,464.376L50.533,464.376c0.434-1.349,0.938-2.678,1.522-3.979
				C51.47,461.698,50.967,463.027,50.533,464.376z"/>
			<path fill="#BDE9F4" d="M95.17,478.009c1.489-0.203,2.981-0.395,4.474-0.595c20.549-2.311,41.124-3.259,61.732-1.327
				c18.674,3.005,36.637,8.708,55.35,11.56c29.768,4.538,58.621,4.397,86.171-8.547c11.459-5.384,18.32-16.012,20.283-27.446
				c0-0.003-0.001-0.003-0.001-0.004c0.486-2.837,0.668-5.725,0.547-8.595c-12.307-17.165-35.302-21.257-54.855-13.009
				c-1.932,0.566-3.885,1.046-5.858,1.449c-6.154,0.355-12.306,0.179-18.448-0.36c-9.645-1.578-19.068-3.883-28.541-6.279
				c-15.994-4.047-32.411-6.356-48.874-7.968c-29.285-2.862-58.677,0.901-87.617,4.918c-10.288,1.428-20.424,10.276-25.44,18.272
				c-4.07,6.491-6.036,13.984-5.773,21.445c0.693,0.979,1.431,1.933,2.213,2.853c0.434-1.349,0.937-2.678,1.522-3.979
				c-0.585,1.301-1.089,2.63-1.522,3.979c3.264,3.839,7.27,7.128,11.836,9.625C73.149,479.899,83.304,479.659,95.17,478.009z"/>
		</g>
		<g>
			<path fill="#C3DCE0" d="M50.54,230.228c0-8.618,6.008-15.818,14.061-17.68c-1.318-0.305-2.688-0.482-4.1-0.482
				c-10.031,0-18.162,8.131-18.162,18.162c0,10.03,8.131,18.161,18.162,18.161c1.412,0,2.781-0.177,4.1-0.482
				C56.548,246.045,50.54,238.845,50.54,230.228z"/>
			<path fill="#BDE9F4" d="M78.662,230.228c0-8.618-6.01-15.818-14.062-17.68c-8.053,1.861-14.061,9.062-14.061,17.68
				s6.008,15.818,14.061,17.679C72.653,246.045,78.662,238.845,78.662,230.228z"/>
		</g>
		<g>
			<path fill="#C3DCE0" d="M321.504,308.229c0-8.619,6.009-15.818,14.062-17.681c-1.319-0.305-2.688-0.481-4.101-0.481
				c-10.031,0-18.162,8.132-18.162,18.162c0,10.029,8.131,18.16,18.162,18.16c1.412,0,2.78-0.178,4.101-0.481
				C327.513,324.045,321.504,316.846,321.504,308.229z"/>
			<path fill="#BDE9F4" d="M349.627,308.229c0-8.619-6.011-15.818-14.063-17.681c-8.053,1.861-14.062,9.062-14.062,17.681
				c0,8.617,6.009,15.816,14.062,17.679C343.616,324.045,349.627,316.846,349.627,308.229z"/>
		</g>
		<g>
			<path fill="#C3DCE0" d="M85.476,357.876c0-7.195,5.016-13.205,11.739-14.76c-1.102-0.255-2.244-0.402-3.423-0.402
				c-8.375,0-15.162,6.789-15.162,15.162s6.788,15.16,15.162,15.16c1.179,0,2.321-0.148,3.423-0.401
				C90.492,371.08,85.476,365.069,85.476,357.876z"/>
			<path fill="#BDE9F4" d="M108.954,357.876c0-7.195-5.018-13.205-11.74-14.76c-6.723,1.554-11.739,7.564-11.739,14.76
				c0,7.193,5.016,13.204,11.739,14.759C103.936,371.08,108.954,365.069,108.954,357.876z"/>
		</g>
		<g>
			<path fill="#C3DCE0" d="M368.25,450.047c0-14.896,10.387-27.344,24.306-30.561c-2.279-0.527-4.646-0.832-7.088-0.832
				c-17.34,0-31.396,14.054-31.396,31.393c0,17.337,14.056,31.394,31.396,31.394c2.441,0,4.809-0.308,7.088-0.833
				C378.637,477.388,368.25,464.944,368.25,450.047z"/>
			<path fill="#BDE9F4" d="M416.861,450.047c0-14.896-10.386-27.344-24.305-30.561c-13.919,3.217-24.306,15.664-24.306,30.561
				c0,14.897,10.387,27.341,24.306,30.561C406.475,477.388,416.861,464.944,416.861,450.047z"/>
		</g>
	</g>
</g>
</svg>
